<svg id="svg" xmlns="http://www.w3.org/2000/svg" xmlns:xlink="http://www.w3.org/1999/xlink" width="400" height="109.0909090909091" viewBox="0, 0, 400,109.0909090909091"><g id="svgg"><path id="path0" d="M127.425 10.504 C 124.491 12.293,123.682 19.405,123.658 43.636 C 123.636 66.817,123.985 69.507,127.758 75.183 C 132.934 82.969,141.222 86.454,149.928 84.505 C 160.187 82.209,157.754 70.092,147.455 72.188 C 144.483 72.792,142.748 72.520,140.991 71.174 C 136.139 67.456,135.594 65.442,135.071 49.307 L 134.825 41.704 138.049 41.958 C 139.822 42.097,142.508 42.308,144.018 42.425 C 148.368 42.765,150.541 41.083,150.544 37.376 C 150.547 33.492,148.244 32.369,140.273 32.366 L 134.909 32.364 134.909 31.443 C 134.909 30.937,135.166 27.218,135.480 23.179 C 136.086 15.377,136.005 13.972,134.843 12.082 C 133.460 9.831,129.805 9.053,127.425 10.504 M293.020 10.828 C 289.311 12.557,289.273 12.816,289.273 36.000 C 289.273 65.847,290.517 72.070,297.965 79.472 C 311.780 93.201,330.666 85.113,335.113 63.562 C 336.594 56.386,334.510 17.952,332.449 14.423 C 330.455 11.009,325.521 10.406,322.695 13.232 C 321.072 14.855,320.801 17.624,321.612 24.283 C 322.293 29.874,323.252 48.106,323.265 55.687 C 323.289 70.771,314.707 78.813,306.350 71.536 C 301.727 67.511,300.728 60.901,300.728 34.339 C 300.727 14.771,300.638 13.823,298.618 11.887 C 296.883 10.225,295.054 9.879,293.020 10.828 M92.364 11.636 C 87.864 11.785,76.982 12.111,68.182 12.360 C 46.920 12.962,48.889 11.736,48.512 24.608 L 48.256 33.329 40.640 33.763 C 29.490 34.399,29.818 34.057,29.818 45.048 C 29.818 52.328,29.816 52.350,29.000 52.519 C 28.550 52.612,24.345 53.027,19.656 53.440 C 10.620 54.236,9.912 54.424,8.954 56.277 C 8.045 58.035,9.079 83.542,10.118 85.002 C 11.596 87.077,10.861 87.036,37.908 86.554 C 51.559 86.310,71.400 86.058,82.000 85.994 C 106.575 85.844,109.043 85.401,114.561 80.137 C 120.807 74.179,121.004 62.956,114.979 56.288 C 111.674 52.629,108.376 51.332,101.636 51.039 C 90.048 50.536,85.922 47.737,84.134 39.163 C 82.099 29.400,86.965 25.343,103.111 23.341 C 112.802 22.140,116.869 18.688,113.175 14.798 C 110.276 11.744,106.487 11.169,92.364 11.636 M77.091 21.297 C 77.091 21.410,76.700 22.024,76.222 22.661 C 68.542 32.891,72.775 52.533,83.943 58.486 C 88.969 61.165,92.365 62.020,99.839 62.492 L 104.491 62.785 105.502 63.996 C 107.972 66.955,106.988 71.044,103.365 72.875 C 100.243 74.453,89.545 75.203,69.636 75.240 C 62.036 75.254,47.313 75.421,36.917 75.611 C 26.521 75.800,17.990 75.925,17.959 75.887 C 17.927 75.849,17.834 72.852,17.751 69.228 L 17.602 62.637 21.619 62.246 C 23.829 62.030,27.892 61.653,30.649 61.406 C 38.771 60.680,38.909 60.491,38.909 50.012 C 38.909 46.105,38.950 42.901,39.000 42.892 C 39.050 42.882,42.473 42.654,46.607 42.384 C 57.786 41.656,57.231 42.278,57.387 30.281 L 57.501 21.472 63.569 21.363 C 66.906 21.303,71.314 21.217,73.364 21.172 C 75.414 21.128,77.091 21.184,77.091 21.297 M179.397 30.559 C 153.426 35.187,152.746 80.739,178.583 85.097 C 190.421 87.094,204.609 76.758,200.864 68.866 C 198.577 64.047,193.632 65.146,189.720 71.342 C 188.763 72.857,184.631 74.695,182.182 74.694 C 176.921 74.693,171.254 69.411,171.124 64.387 L 171.091 63.091 185.617 62.992 C 204.385 62.864,204.260 62.920,203.876 54.727 C 203.103 38.211,192.912 28.151,179.397 30.559 M363.658 31.475 C 358.975 32.490,355.173 35.108,351.739 39.682 C 350.631 41.157,349.262 42.893,348.696 43.540 C 346.301 46.280,345.991 49.982,345.636 80.000 C 345.363 103.100,345.230 101.984,348.444 103.579 C 350.528 104.613,352.540 104.417,354.203 103.018 C 356.106 101.416,356.113 101.368,356.032 89.560 C 355.990 83.502,356.039 78.545,356.141 78.545 C 356.244 78.545,357.092 79.062,358.028 79.693 C 369.849 87.671,387.367 80.575,391.235 66.242 C 396.360 47.247,380.887 27.739,363.658 31.475 M231.294 32.202 C 226.611 33.218,222.810 35.835,219.375 40.409 C 218.268 41.884,216.899 43.620,216.333 44.268 C 213.938 47.007,213.627 50.709,213.272 80.727 C 212.999 103.827,212.866 102.712,216.081 104.306 C 218.164 105.340,220.176 105.144,221.839 103.745 C 223.743 102.143,223.749 102.095,223.668 90.287 C 223.626 84.229,223.676 79.273,223.778 79.273 C 223.880 79.273,224.729 79.789,225.664 80.420 C 237.485 88.398,255.004 81.302,258.871 66.969 C 263.996 47.974,248.523 28.466,231.294 32.202 M187.273 42.283 C 189.838 43.550,193.922 51.261,192.698 52.527 C 192.115 53.130,187.840 53.366,179.899 53.234 C 175.655 53.163,171.822 53.102,171.383 53.098 L 170.585 53.091 171.261 51.126 C 173.948 43.316,181.226 39.296,187.273 42.283 M371.791 42.843 C 385.269 49.150,382.839 71.182,368.679 71.054 C 364.446 71.015,360.085 67.898,357.717 63.219 C 355.863 59.553,356.590 48.746,358.887 45.846 C 362.453 41.343,366.549 40.390,371.791 42.843 M239.427 43.570 C 252.906 49.877,250.476 71.909,236.316 71.781 C 232.082 71.743,227.721 68.626,225.353 63.946 C 223.499 60.280,224.227 49.473,226.523 46.574 C 230.090 42.070,234.185 41.117,239.427 43.570 " stroke="none" fill="#000000" fill-rule="evenodd"></path></g></svg>